<svg id="Layer_1" enable-background="new 0 0 34 34" height="512" viewBox="0 0 34 34" width="512" xmlns="http://www.w3.org/2000/svg"><g><path d="m17 33c.3 0 .6-.2.8-.4.4-.6 10.5-14.3 10.5-20.2 0-6.3-5.1-11.4-11.3-11.4s-11.3 5.1-11.3 11.3c0 5.9 10.1 19.7 10.5 20.2.2.3.5.5.8.5zm0-30c5.1 0 9.3 4.2 9.3 9.3 0 4-6.1 13.4-9.3 17.9-3.2-4.5-9.3-13.9-9.3-17.9 0-5.1 4.2-9.3 9.3-9.3z"/><path d="m22.9 12c0-3.2-2.6-5.9-5.9-5.9s-5.9 2.6-5.9 5.9 2.6 5.9 5.9 5.9 5.9-2.7 5.9-5.9zm-9.8 0c0-2.1 1.7-3.9 3.9-3.9s3.9 1.7 3.9 3.9-1.7 3.9-3.9 3.9-3.9-1.8-3.9-3.9z"/></g></svg>